<svg width="53" height="38" viewBox="0 0 53 38"  xmlns="http://www.w3.org/2000/svg">
<path d="M14.3062 19.4977H11.2042C9.88296 19.4977 8.81067 20.57 8.81067 21.8912C8.81067 23.2124 9.88296 24.2847 11.2042 24.2847H15.1789C15.848 24.2847 16.4321 24.7251 16.6651 25.3523C17.4149 27.3709 18.5089 29.223 19.8751 30.8365C20.5756 31.6631 19.9979 32.93 18.9145 32.93H15.7056C14.5599 32.93 13.5722 33.8108 13.5179 34.9565C13.4605 36.1788 14.4354 37.1889 15.6449 37.1889H31.3878C32.224 37.3054 33.076 37.366 33.9441 37.366C44.2011 37.366 52.5033 28.9839 52.3709 18.6934C52.2417 8.74443 44.1197 0.630442 34.1707 0.509171C32.7761 0.491619 31.4165 0.630442 30.1081 0.908089C26.9806 1.57189 23.7876 1.87826 20.5915 1.87826H5.3337C4.04439 1.87826 2.93381 2.86917 2.87317 4.15847C2.80775 5.53394 3.90398 6.67006 5.26508 6.67006H15.0705C17.0954 6.67006 18.4166 8.80666 17.5007 10.6114C17.4895 10.6321 17.48 10.6529 17.4688 10.6736C17.0092 11.5911 16.0678 12.1687 15.0402 12.1687H2.4934C1.2041 12.1687 0.0935096 13.1597 0.0328741 14.449C-0.0325485 15.8244 1.06368 16.9605 2.42479 16.9605H14.3046C15.0242 16.9605 15.5987 17.5573 15.5715 18.277C15.546 18.9583 14.9859 19.4961 14.3046 19.4961L14.3062 19.4977ZM28.7757 7.88756C28.9417 5.31055 31.0352 3.22022 33.6122 3.05905C36.7381 2.86438 39.3119 5.4398 39.1141 8.56572C38.9513 11.1443 36.8594 13.2362 34.2792 13.399C31.1485 13.5969 28.5715 11.0151 28.7741 7.88596L28.7757 7.88756ZM18.4118 16.1404C18.2187 13.0145 20.7942 10.4422 23.9201 10.6401C26.5003 10.8028 28.5922 12.8964 28.7534 15.4766C28.9496 18.6073 26.3662 21.1827 23.2371 20.98C20.6601 20.8125 18.5714 18.719 18.4102 16.142L18.4118 16.1404ZM32.4426 28.0409C32.2798 30.6195 30.1879 32.7114 27.6093 32.8742C24.4786 33.072 21.8984 30.4902 22.101 27.3611C22.2686 24.7825 24.3621 22.6938 26.9407 22.5326C30.0666 22.338 32.6388 24.915 32.4426 28.0409ZM34.2425 20.6338C33.0665 20.8301 32.0612 19.8296 32.2511 18.6536C32.366 17.9419 32.9372 17.3658 33.6489 17.2462C34.8249 17.0499 35.8334 18.0488 35.6435 19.2264C35.5286 19.9397 34.9557 20.5157 34.2425 20.6354V20.6338ZM45.792 28.0377C45.6308 30.6163 43.5405 32.7098 40.9619 32.8742C37.8311 33.0752 35.2509 30.4934 35.452 27.3643C35.6164 24.7873 37.7067 22.6954 40.2837 22.5326C43.408 22.3348 45.9866 24.9118 45.792 28.0377ZM44.3096 20.9912C41.4469 20.9912 39.1268 18.6711 39.1268 15.8117C39.1268 12.9522 41.6496 10.4327 44.6798 10.6433C47.236 10.8204 49.3056 12.8932 49.4796 15.4494C49.6854 18.4764 47.2903 20.9928 44.3112 20.9928L44.3096 20.9912Z" />
</svg>
