<svg width="21" height="20" viewBox="0 0 21 20"  xmlns="http://www.w3.org/2000/svg">
<path d="M10.272 0.530622C10.5017 0.0672662 11.1653 0.067267 11.395 0.530623L14.0001 5.78633C14.0913 5.97033 14.2676 6.09786 14.4715 6.12737L20.2967 6.97016C20.8103 7.04446 21.0153 7.67285 20.6437 8.03352L16.4286 12.1245C16.281 12.2677 16.2137 12.4741 16.2485 12.6763L17.2436 18.4529C17.3313 18.9622 16.7944 19.3506 16.3351 19.1101L11.1249 16.3828C10.9425 16.2873 10.7245 16.2873 10.5421 16.3828L5.33191 19.1101C4.87257 19.3506 4.3357 18.9622 4.42343 18.4529L5.41849 12.6763C5.45333 12.4741 5.38599 12.2677 5.23842 12.1245L1.02326 8.03352C0.651646 7.67285 0.85671 7.04446 1.37027 6.97016L7.19548 6.12737C7.39941 6.09786 7.57571 5.97033 7.66691 5.78633L10.272 0.530622Z" />
</svg>
